<?xml version="1.0" encoding="UTF-8"?>
<svg version="1.1" baseProfile="tiny" xmlns="http://www.w3.org/2000/svg" width="1075" height="1075">
<rect shape-rendering="optimizeSpeed"  x="0" y="0" width="1075" height="1075" fill="white" />
<rect shape-rendering="optimizeSpeed"  x="0" y="0" width="43" height="43" fill="black" />
<rect shape-rendering="optimizeSpeed"  x="43" y="0" width="43" height="43" fill="black" />
<rect shape-rendering="optimizeSpeed"  x="86" y="0" width="43" height="43" fill="black" />
<rect shape-rendering="optimizeSpeed"  x="129" y="0" width="43" height="43" fill="black" />
<rect shape-rendering="optimizeSpeed"  x="172" y="0" width="43" height="43" fill="black" />
<rect shape-rendering="optimizeSpeed"  x="215" y="0" width="43" height="43" fill="black" />
<rect shape-rendering="optimizeSpeed"  x="258" y="0" width="43" height="43" fill="black" />
<rect shape-rendering="optimizeSpeed"  x="387" y="0" width="43" height="43" fill="black" />
<rect shape-rendering="optimizeSpeed"  x="430" y="0" width="43" height="43" fill="black" />
<rect shape-rendering="optimizeSpeed"  x="602" y="0" width="43" height="43" fill="black" />
<rect shape-rendering="optimizeSpeed"  x="774" y="0" width="43" height="43" fill="black" />
<rect shape-rendering="optimizeSpeed"  x="817" y="0" width="43" height="43" fill="black" />
<rect shape-rendering="optimizeSpeed"  x="860" y="0" width="43" height="43" fill="black" />
<rect shape-rendering="optimizeSpeed"  x="903" y="0" width="43" height="43" fill="black" />
<rect shape-rendering="optimizeSpeed"  x="946" y="0" width="43" height="43" fill="black" />
<rect shape-rendering="optimizeSpeed"  x="989" y="0" width="43" height="43" fill="black" />
<rect shape-rendering="optimizeSpeed"  x="1032" y="0" width="43" height="43" fill="black" />
<rect shape-rendering="optimizeSpeed"  x="0" y="43" width="43" height="43" fill="black" />
<rect shape-rendering="optimizeSpeed"  x="258" y="43" width="43" height="43" fill="black" />
<rect shape-rendering="optimizeSpeed"  x="430" y="43" width="43" height="43" fill="black" />
<rect shape-rendering="optimizeSpeed"  x="602" y="43" width="43" height="43" fill="black" />
<rect shape-rendering="optimizeSpeed"  x="688" y="43" width="43" height="43" fill="black" />
<rect shape-rendering="optimizeSpeed"  x="774" y="43" width="43" height="43" fill="black" />
<rect shape-rendering="optimizeSpeed"  x="1032" y="43" width="43" height="43" fill="black" />
<rect shape-rendering="optimizeSpeed"  x="0" y="86" width="43" height="43" fill="black" />
<rect shape-rendering="optimizeSpeed"  x="86" y="86" width="43" height="43" fill="black" />
<rect shape-rendering="optimizeSpeed"  x="129" y="86" width="43" height="43" fill="black" />
<rect shape-rendering="optimizeSpeed"  x="172" y="86" width="43" height="43" fill="black" />
<rect shape-rendering="optimizeSpeed"  x="258" y="86" width="43" height="43" fill="black" />
<rect shape-rendering="optimizeSpeed"  x="387" y="86" width="43" height="43" fill="black" />
<rect shape-rendering="optimizeSpeed"  x="430" y="86" width="43" height="43" fill="black" />
<rect shape-rendering="optimizeSpeed"  x="516" y="86" width="43" height="43" fill="black" />
<rect shape-rendering="optimizeSpeed"  x="645" y="86" width="43" height="43" fill="black" />
<rect shape-rendering="optimizeSpeed"  x="774" y="86" width="43" height="43" fill="black" />
<rect shape-rendering="optimizeSpeed"  x="860" y="86" width="43" height="43" fill="black" />
<rect shape-rendering="optimizeSpeed"  x="903" y="86" width="43" height="43" fill="black" />
<rect shape-rendering="optimizeSpeed"  x="946" y="86" width="43" height="43" fill="black" />
<rect shape-rendering="optimizeSpeed"  x="1032" y="86" width="43" height="43" fill="black" />
<rect shape-rendering="optimizeSpeed"  x="0" y="129" width="43" height="43" fill="black" />
<rect shape-rendering="optimizeSpeed"  x="86" y="129" width="43" height="43" fill="black" />
<rect shape-rendering="optimizeSpeed"  x="129" y="129" width="43" height="43" fill="black" />
<rect shape-rendering="optimizeSpeed"  x="172" y="129" width="43" height="43" fill="black" />
<rect shape-rendering="optimizeSpeed"  x="258" y="129" width="43" height="43" fill="black" />
<rect shape-rendering="optimizeSpeed"  x="344" y="129" width="43" height="43" fill="black" />
<rect shape-rendering="optimizeSpeed"  x="387" y="129" width="43" height="43" fill="black" />
<rect shape-rendering="optimizeSpeed"  x="473" y="129" width="43" height="43" fill="black" />
<rect shape-rendering="optimizeSpeed"  x="516" y="129" width="43" height="43" fill="black" />
<rect shape-rendering="optimizeSpeed"  x="559" y="129" width="43" height="43" fill="black" />
<rect shape-rendering="optimizeSpeed"  x="688" y="129" width="43" height="43" fill="black" />
<rect shape-rendering="optimizeSpeed"  x="774" y="129" width="43" height="43" fill="black" />
<rect shape-rendering="optimizeSpeed"  x="860" y="129" width="43" height="43" fill="black" />
<rect shape-rendering="optimizeSpeed"  x="903" y="129" width="43" height="43" fill="black" />
<rect shape-rendering="optimizeSpeed"  x="946" y="129" width="43" height="43" fill="black" />
<rect shape-rendering="optimizeSpeed"  x="1032" y="129" width="43" height="43" fill="black" />
<rect shape-rendering="optimizeSpeed"  x="0" y="172" width="43" height="43" fill="black" />
<rect shape-rendering="optimizeSpeed"  x="86" y="172" width="43" height="43" fill="black" />
<rect shape-rendering="optimizeSpeed"  x="129" y="172" width="43" height="43" fill="black" />
<rect shape-rendering="optimizeSpeed"  x="172" y="172" width="43" height="43" fill="black" />
<rect shape-rendering="optimizeSpeed"  x="258" y="172" width="43" height="43" fill="black" />
<rect shape-rendering="optimizeSpeed"  x="344" y="172" width="43" height="43" fill="black" />
<rect shape-rendering="optimizeSpeed"  x="473" y="172" width="43" height="43" fill="black" />
<rect shape-rendering="optimizeSpeed"  x="688" y="172" width="43" height="43" fill="black" />
<rect shape-rendering="optimizeSpeed"  x="774" y="172" width="43" height="43" fill="black" />
<rect shape-rendering="optimizeSpeed"  x="860" y="172" width="43" height="43" fill="black" />
<rect shape-rendering="optimizeSpeed"  x="903" y="172" width="43" height="43" fill="black" />
<rect shape-rendering="optimizeSpeed"  x="946" y="172" width="43" height="43" fill="black" />
<rect shape-rendering="optimizeSpeed"  x="1032" y="172" width="43" height="43" fill="black" />
<rect shape-rendering="optimizeSpeed"  x="0" y="215" width="43" height="43" fill="black" />
<rect shape-rendering="optimizeSpeed"  x="258" y="215" width="43" height="43" fill="black" />
<rect shape-rendering="optimizeSpeed"  x="387" y="215" width="43" height="43" fill="black" />
<rect shape-rendering="optimizeSpeed"  x="430" y="215" width="43" height="43" fill="black" />
<rect shape-rendering="optimizeSpeed"  x="516" y="215" width="43" height="43" fill="black" />
<rect shape-rendering="optimizeSpeed"  x="688" y="215" width="43" height="43" fill="black" />
<rect shape-rendering="optimizeSpeed"  x="774" y="215" width="43" height="43" fill="black" />
<rect shape-rendering="optimizeSpeed"  x="1032" y="215" width="43" height="43" fill="black" />
<rect shape-rendering="optimizeSpeed"  x="0" y="258" width="43" height="43" fill="black" />
<rect shape-rendering="optimizeSpeed"  x="43" y="258" width="43" height="43" fill="black" />
<rect shape-rendering="optimizeSpeed"  x="86" y="258" width="43" height="43" fill="black" />
<rect shape-rendering="optimizeSpeed"  x="129" y="258" width="43" height="43" fill="black" />
<rect shape-rendering="optimizeSpeed"  x="172" y="258" width="43" height="43" fill="black" />
<rect shape-rendering="optimizeSpeed"  x="215" y="258" width="43" height="43" fill="black" />
<rect shape-rendering="optimizeSpeed"  x="258" y="258" width="43" height="43" fill="black" />
<rect shape-rendering="optimizeSpeed"  x="344" y="258" width="43" height="43" fill="black" />
<rect shape-rendering="optimizeSpeed"  x="430" y="258" width="43" height="43" fill="black" />
<rect shape-rendering="optimizeSpeed"  x="516" y="258" width="43" height="43" fill="black" />
<rect shape-rendering="optimizeSpeed"  x="602" y="258" width="43" height="43" fill="black" />
<rect shape-rendering="optimizeSpeed"  x="688" y="258" width="43" height="43" fill="black" />
<rect shape-rendering="optimizeSpeed"  x="774" y="258" width="43" height="43" fill="black" />
<rect shape-rendering="optimizeSpeed"  x="817" y="258" width="43" height="43" fill="black" />
<rect shape-rendering="optimizeSpeed"  x="860" y="258" width="43" height="43" fill="black" />
<rect shape-rendering="optimizeSpeed"  x="903" y="258" width="43" height="43" fill="black" />
<rect shape-rendering="optimizeSpeed"  x="946" y="258" width="43" height="43" fill="black" />
<rect shape-rendering="optimizeSpeed"  x="989" y="258" width="43" height="43" fill="black" />
<rect shape-rendering="optimizeSpeed"  x="1032" y="258" width="43" height="43" fill="black" />
<rect shape-rendering="optimizeSpeed"  x="602" y="301" width="43" height="43" fill="black" />
<rect shape-rendering="optimizeSpeed"  x="688" y="301" width="43" height="43" fill="black" />
<rect shape-rendering="optimizeSpeed"  x="0" y="344" width="43" height="43" fill="black" />
<rect shape-rendering="optimizeSpeed"  x="43" y="344" width="43" height="43" fill="black" />
<rect shape-rendering="optimizeSpeed"  x="215" y="344" width="43" height="43" fill="black" />
<rect shape-rendering="optimizeSpeed"  x="258" y="344" width="43" height="43" fill="black" />
<rect shape-rendering="optimizeSpeed"  x="301" y="344" width="43" height="43" fill="black" />
<rect shape-rendering="optimizeSpeed"  x="387" y="344" width="43" height="43" fill="black" />
<rect shape-rendering="optimizeSpeed"  x="473" y="344" width="43" height="43" fill="black" />
<rect shape-rendering="optimizeSpeed"  x="516" y="344" width="43" height="43" fill="black" />
<rect shape-rendering="optimizeSpeed"  x="559" y="344" width="43" height="43" fill="black" />
<rect shape-rendering="optimizeSpeed"  x="860" y="344" width="43" height="43" fill="black" />
<rect shape-rendering="optimizeSpeed"  x="903" y="344" width="43" height="43" fill="black" />
<rect shape-rendering="optimizeSpeed"  x="43" y="387" width="43" height="43" fill="black" />
<rect shape-rendering="optimizeSpeed"  x="86" y="387" width="43" height="43" fill="black" />
<rect shape-rendering="optimizeSpeed"  x="129" y="387" width="43" height="43" fill="black" />
<rect shape-rendering="optimizeSpeed"  x="172" y="387" width="43" height="43" fill="black" />
<rect shape-rendering="optimizeSpeed"  x="215" y="387" width="43" height="43" fill="black" />
<rect shape-rendering="optimizeSpeed"  x="301" y="387" width="43" height="43" fill="black" />
<rect shape-rendering="optimizeSpeed"  x="344" y="387" width="43" height="43" fill="black" />
<rect shape-rendering="optimizeSpeed"  x="387" y="387" width="43" height="43" fill="black" />
<rect shape-rendering="optimizeSpeed"  x="430" y="387" width="43" height="43" fill="black" />
<rect shape-rendering="optimizeSpeed"  x="473" y="387" width="43" height="43" fill="black" />
<rect shape-rendering="optimizeSpeed"  x="559" y="387" width="43" height="43" fill="black" />
<rect shape-rendering="optimizeSpeed"  x="602" y="387" width="43" height="43" fill="black" />
<rect shape-rendering="optimizeSpeed"  x="645" y="387" width="43" height="43" fill="black" />
<rect shape-rendering="optimizeSpeed"  x="817" y="387" width="43" height="43" fill="black" />
<rect shape-rendering="optimizeSpeed"  x="860" y="387" width="43" height="43" fill="black" />
<rect shape-rendering="optimizeSpeed"  x="903" y="387" width="43" height="43" fill="black" />
<rect shape-rendering="optimizeSpeed"  x="946" y="387" width="43" height="43" fill="black" />
<rect shape-rendering="optimizeSpeed"  x="989" y="387" width="43" height="43" fill="black" />
<rect shape-rendering="optimizeSpeed"  x="86" y="430" width="43" height="43" fill="black" />
<rect shape-rendering="optimizeSpeed"  x="129" y="430" width="43" height="43" fill="black" />
<rect shape-rendering="optimizeSpeed"  x="172" y="430" width="43" height="43" fill="black" />
<rect shape-rendering="optimizeSpeed"  x="215" y="430" width="43" height="43" fill="black" />
<rect shape-rendering="optimizeSpeed"  x="258" y="430" width="43" height="43" fill="black" />
<rect shape-rendering="optimizeSpeed"  x="301" y="430" width="43" height="43" fill="black" />
<rect shape-rendering="optimizeSpeed"  x="430" y="430" width="43" height="43" fill="black" />
<rect shape-rendering="optimizeSpeed"  x="559" y="430" width="43" height="43" fill="black" />
<rect shape-rendering="optimizeSpeed"  x="602" y="430" width="43" height="43" fill="black" />
<rect shape-rendering="optimizeSpeed"  x="645" y="430" width="43" height="43" fill="black" />
<rect shape-rendering="optimizeSpeed"  x="731" y="430" width="43" height="43" fill="black" />
<rect shape-rendering="optimizeSpeed"  x="817" y="430" width="43" height="43" fill="black" />
<rect shape-rendering="optimizeSpeed"  x="903" y="430" width="43" height="43" fill="black" />
<rect shape-rendering="optimizeSpeed"  x="989" y="430" width="43" height="43" fill="black" />
<rect shape-rendering="optimizeSpeed"  x="1032" y="430" width="43" height="43" fill="black" />
<rect shape-rendering="optimizeSpeed"  x="0" y="473" width="43" height="43" fill="black" />
<rect shape-rendering="optimizeSpeed"  x="344" y="473" width="43" height="43" fill="black" />
<rect shape-rendering="optimizeSpeed"  x="387" y="473" width="43" height="43" fill="black" />
<rect shape-rendering="optimizeSpeed"  x="645" y="473" width="43" height="43" fill="black" />
<rect shape-rendering="optimizeSpeed"  x="688" y="473" width="43" height="43" fill="black" />
<rect shape-rendering="optimizeSpeed"  x="774" y="473" width="43" height="43" fill="black" />
<rect shape-rendering="optimizeSpeed"  x="903" y="473" width="43" height="43" fill="black" />
<rect shape-rendering="optimizeSpeed"  x="1032" y="473" width="43" height="43" fill="black" />
<rect shape-rendering="optimizeSpeed"  x="43" y="516" width="43" height="43" fill="black" />
<rect shape-rendering="optimizeSpeed"  x="86" y="516" width="43" height="43" fill="black" />
<rect shape-rendering="optimizeSpeed"  x="172" y="516" width="43" height="43" fill="black" />
<rect shape-rendering="optimizeSpeed"  x="258" y="516" width="43" height="43" fill="black" />
<rect shape-rendering="optimizeSpeed"  x="301" y="516" width="43" height="43" fill="black" />
<rect shape-rendering="optimizeSpeed"  x="387" y="516" width="43" height="43" fill="black" />
<rect shape-rendering="optimizeSpeed"  x="473" y="516" width="43" height="43" fill="black" />
<rect shape-rendering="optimizeSpeed"  x="516" y="516" width="43" height="43" fill="black" />
<rect shape-rendering="optimizeSpeed"  x="688" y="516" width="43" height="43" fill="black" />
<rect shape-rendering="optimizeSpeed"  x="774" y="516" width="43" height="43" fill="black" />
<rect shape-rendering="optimizeSpeed"  x="817" y="516" width="43" height="43" fill="black" />
<rect shape-rendering="optimizeSpeed"  x="1032" y="516" width="43" height="43" fill="black" />
<rect shape-rendering="optimizeSpeed"  x="0" y="559" width="43" height="43" fill="black" />
<rect shape-rendering="optimizeSpeed"  x="43" y="559" width="43" height="43" fill="black" />
<rect shape-rendering="optimizeSpeed"  x="86" y="559" width="43" height="43" fill="black" />
<rect shape-rendering="optimizeSpeed"  x="172" y="559" width="43" height="43" fill="black" />
<rect shape-rendering="optimizeSpeed"  x="215" y="559" width="43" height="43" fill="black" />
<rect shape-rendering="optimizeSpeed"  x="387" y="559" width="43" height="43" fill="black" />
<rect shape-rendering="optimizeSpeed"  x="473" y="559" width="43" height="43" fill="black" />
<rect shape-rendering="optimizeSpeed"  x="645" y="559" width="43" height="43" fill="black" />
<rect shape-rendering="optimizeSpeed"  x="817" y="559" width="43" height="43" fill="black" />
<rect shape-rendering="optimizeSpeed"  x="989" y="559" width="43" height="43" fill="black" />
<rect shape-rendering="optimizeSpeed"  x="0" y="602" width="43" height="43" fill="black" />
<rect shape-rendering="optimizeSpeed"  x="215" y="602" width="43" height="43" fill="black" />
<rect shape-rendering="optimizeSpeed"  x="258" y="602" width="43" height="43" fill="black" />
<rect shape-rendering="optimizeSpeed"  x="344" y="602" width="43" height="43" fill="black" />
<rect shape-rendering="optimizeSpeed"  x="430" y="602" width="43" height="43" fill="black" />
<rect shape-rendering="optimizeSpeed"  x="516" y="602" width="43" height="43" fill="black" />
<rect shape-rendering="optimizeSpeed"  x="559" y="602" width="43" height="43" fill="black" />
<rect shape-rendering="optimizeSpeed"  x="602" y="602" width="43" height="43" fill="black" />
<rect shape-rendering="optimizeSpeed"  x="645" y="602" width="43" height="43" fill="black" />
<rect shape-rendering="optimizeSpeed"  x="688" y="602" width="43" height="43" fill="black" />
<rect shape-rendering="optimizeSpeed"  x="731" y="602" width="43" height="43" fill="black" />
<rect shape-rendering="optimizeSpeed"  x="774" y="602" width="43" height="43" fill="black" />
<rect shape-rendering="optimizeSpeed"  x="817" y="602" width="43" height="43" fill="black" />
<rect shape-rendering="optimizeSpeed"  x="860" y="602" width="43" height="43" fill="black" />
<rect shape-rendering="optimizeSpeed"  x="903" y="602" width="43" height="43" fill="black" />
<rect shape-rendering="optimizeSpeed"  x="989" y="602" width="43" height="43" fill="black" />
<rect shape-rendering="optimizeSpeed"  x="1032" y="602" width="43" height="43" fill="black" />
<rect shape-rendering="optimizeSpeed"  x="0" y="645" width="43" height="43" fill="black" />
<rect shape-rendering="optimizeSpeed"  x="86" y="645" width="43" height="43" fill="black" />
<rect shape-rendering="optimizeSpeed"  x="301" y="645" width="43" height="43" fill="black" />
<rect shape-rendering="optimizeSpeed"  x="387" y="645" width="43" height="43" fill="black" />
<rect shape-rendering="optimizeSpeed"  x="473" y="645" width="43" height="43" fill="black" />
<rect shape-rendering="optimizeSpeed"  x="516" y="645" width="43" height="43" fill="black" />
<rect shape-rendering="optimizeSpeed"  x="602" y="645" width="43" height="43" fill="black" />
<rect shape-rendering="optimizeSpeed"  x="731" y="645" width="43" height="43" fill="black" />
<rect shape-rendering="optimizeSpeed"  x="774" y="645" width="43" height="43" fill="black" />
<rect shape-rendering="optimizeSpeed"  x="817" y="645" width="43" height="43" fill="black" />
<rect shape-rendering="optimizeSpeed"  x="860" y="645" width="43" height="43" fill="black" />
<rect shape-rendering="optimizeSpeed"  x="946" y="645" width="43" height="43" fill="black" />
<rect shape-rendering="optimizeSpeed"  x="1032" y="645" width="43" height="43" fill="black" />
<rect shape-rendering="optimizeSpeed"  x="0" y="688" width="43" height="43" fill="black" />
<rect shape-rendering="optimizeSpeed"  x="86" y="688" width="43" height="43" fill="black" />
<rect shape-rendering="optimizeSpeed"  x="129" y="688" width="43" height="43" fill="black" />
<rect shape-rendering="optimizeSpeed"  x="172" y="688" width="43" height="43" fill="black" />
<rect shape-rendering="optimizeSpeed"  x="258" y="688" width="43" height="43" fill="black" />
<rect shape-rendering="optimizeSpeed"  x="301" y="688" width="43" height="43" fill="black" />
<rect shape-rendering="optimizeSpeed"  x="344" y="688" width="43" height="43" fill="black" />
<rect shape-rendering="optimizeSpeed"  x="387" y="688" width="43" height="43" fill="black" />
<rect shape-rendering="optimizeSpeed"  x="430" y="688" width="43" height="43" fill="black" />
<rect shape-rendering="optimizeSpeed"  x="559" y="688" width="43" height="43" fill="black" />
<rect shape-rendering="optimizeSpeed"  x="602" y="688" width="43" height="43" fill="black" />
<rect shape-rendering="optimizeSpeed"  x="645" y="688" width="43" height="43" fill="black" />
<rect shape-rendering="optimizeSpeed"  x="688" y="688" width="43" height="43" fill="black" />
<rect shape-rendering="optimizeSpeed"  x="731" y="688" width="43" height="43" fill="black" />
<rect shape-rendering="optimizeSpeed"  x="774" y="688" width="43" height="43" fill="black" />
<rect shape-rendering="optimizeSpeed"  x="817" y="688" width="43" height="43" fill="black" />
<rect shape-rendering="optimizeSpeed"  x="860" y="688" width="43" height="43" fill="black" />
<rect shape-rendering="optimizeSpeed"  x="946" y="688" width="43" height="43" fill="black" />
<rect shape-rendering="optimizeSpeed"  x="344" y="731" width="43" height="43" fill="black" />
<rect shape-rendering="optimizeSpeed"  x="473" y="731" width="43" height="43" fill="black" />
<rect shape-rendering="optimizeSpeed"  x="602" y="731" width="43" height="43" fill="black" />
<rect shape-rendering="optimizeSpeed"  x="688" y="731" width="43" height="43" fill="black" />
<rect shape-rendering="optimizeSpeed"  x="860" y="731" width="43" height="43" fill="black" />
<rect shape-rendering="optimizeSpeed"  x="946" y="731" width="43" height="43" fill="black" />
<rect shape-rendering="optimizeSpeed"  x="0" y="774" width="43" height="43" fill="black" />
<rect shape-rendering="optimizeSpeed"  x="43" y="774" width="43" height="43" fill="black" />
<rect shape-rendering="optimizeSpeed"  x="86" y="774" width="43" height="43" fill="black" />
<rect shape-rendering="optimizeSpeed"  x="129" y="774" width="43" height="43" fill="black" />
<rect shape-rendering="optimizeSpeed"  x="172" y="774" width="43" height="43" fill="black" />
<rect shape-rendering="optimizeSpeed"  x="215" y="774" width="43" height="43" fill="black" />
<rect shape-rendering="optimizeSpeed"  x="258" y="774" width="43" height="43" fill="black" />
<rect shape-rendering="optimizeSpeed"  x="344" y="774" width="43" height="43" fill="black" />
<rect shape-rendering="optimizeSpeed"  x="387" y="774" width="43" height="43" fill="black" />
<rect shape-rendering="optimizeSpeed"  x="430" y="774" width="43" height="43" fill="black" />
<rect shape-rendering="optimizeSpeed"  x="473" y="774" width="43" height="43" fill="black" />
<rect shape-rendering="optimizeSpeed"  x="602" y="774" width="43" height="43" fill="black" />
<rect shape-rendering="optimizeSpeed"  x="688" y="774" width="43" height="43" fill="black" />
<rect shape-rendering="optimizeSpeed"  x="774" y="774" width="43" height="43" fill="black" />
<rect shape-rendering="optimizeSpeed"  x="860" y="774" width="43" height="43" fill="black" />
<rect shape-rendering="optimizeSpeed"  x="903" y="774" width="43" height="43" fill="black" />
<rect shape-rendering="optimizeSpeed"  x="1032" y="774" width="43" height="43" fill="black" />
<rect shape-rendering="optimizeSpeed"  x="0" y="817" width="43" height="43" fill="black" />
<rect shape-rendering="optimizeSpeed"  x="258" y="817" width="43" height="43" fill="black" />
<rect shape-rendering="optimizeSpeed"  x="344" y="817" width="43" height="43" fill="black" />
<rect shape-rendering="optimizeSpeed"  x="645" y="817" width="43" height="43" fill="black" />
<rect shape-rendering="optimizeSpeed"  x="688" y="817" width="43" height="43" fill="black" />
<rect shape-rendering="optimizeSpeed"  x="860" y="817" width="43" height="43" fill="black" />
<rect shape-rendering="optimizeSpeed"  x="989" y="817" width="43" height="43" fill="black" />
<rect shape-rendering="optimizeSpeed"  x="0" y="860" width="43" height="43" fill="black" />
<rect shape-rendering="optimizeSpeed"  x="86" y="860" width="43" height="43" fill="black" />
<rect shape-rendering="optimizeSpeed"  x="129" y="860" width="43" height="43" fill="black" />
<rect shape-rendering="optimizeSpeed"  x="172" y="860" width="43" height="43" fill="black" />
<rect shape-rendering="optimizeSpeed"  x="258" y="860" width="43" height="43" fill="black" />
<rect shape-rendering="optimizeSpeed"  x="387" y="860" width="43" height="43" fill="black" />
<rect shape-rendering="optimizeSpeed"  x="430" y="860" width="43" height="43" fill="black" />
<rect shape-rendering="optimizeSpeed"  x="559" y="860" width="43" height="43" fill="black" />
<rect shape-rendering="optimizeSpeed"  x="645" y="860" width="43" height="43" fill="black" />
<rect shape-rendering="optimizeSpeed"  x="688" y="860" width="43" height="43" fill="black" />
<rect shape-rendering="optimizeSpeed"  x="731" y="860" width="43" height="43" fill="black" />
<rect shape-rendering="optimizeSpeed"  x="774" y="860" width="43" height="43" fill="black" />
<rect shape-rendering="optimizeSpeed"  x="817" y="860" width="43" height="43" fill="black" />
<rect shape-rendering="optimizeSpeed"  x="860" y="860" width="43" height="43" fill="black" />
<rect shape-rendering="optimizeSpeed"  x="903" y="860" width="43" height="43" fill="black" />
<rect shape-rendering="optimizeSpeed"  x="946" y="860" width="43" height="43" fill="black" />
<rect shape-rendering="optimizeSpeed"  x="989" y="860" width="43" height="43" fill="black" />
<rect shape-rendering="optimizeSpeed"  x="0" y="903" width="43" height="43" fill="black" />
<rect shape-rendering="optimizeSpeed"  x="86" y="903" width="43" height="43" fill="black" />
<rect shape-rendering="optimizeSpeed"  x="129" y="903" width="43" height="43" fill="black" />
<rect shape-rendering="optimizeSpeed"  x="172" y="903" width="43" height="43" fill="black" />
<rect shape-rendering="optimizeSpeed"  x="258" y="903" width="43" height="43" fill="black" />
<rect shape-rendering="optimizeSpeed"  x="387" y="903" width="43" height="43" fill="black" />
<rect shape-rendering="optimizeSpeed"  x="430" y="903" width="43" height="43" fill="black" />
<rect shape-rendering="optimizeSpeed"  x="473" y="903" width="43" height="43" fill="black" />
<rect shape-rendering="optimizeSpeed"  x="559" y="903" width="43" height="43" fill="black" />
<rect shape-rendering="optimizeSpeed"  x="602" y="903" width="43" height="43" fill="black" />
<rect shape-rendering="optimizeSpeed"  x="645" y="903" width="43" height="43" fill="black" />
<rect shape-rendering="optimizeSpeed"  x="688" y="903" width="43" height="43" fill="black" />
<rect shape-rendering="optimizeSpeed"  x="731" y="903" width="43" height="43" fill="black" />
<rect shape-rendering="optimizeSpeed"  x="774" y="903" width="43" height="43" fill="black" />
<rect shape-rendering="optimizeSpeed"  x="903" y="903" width="43" height="43" fill="black" />
<rect shape-rendering="optimizeSpeed"  x="989" y="903" width="43" height="43" fill="black" />
<rect shape-rendering="optimizeSpeed"  x="1032" y="903" width="43" height="43" fill="black" />
<rect shape-rendering="optimizeSpeed"  x="0" y="946" width="43" height="43" fill="black" />
<rect shape-rendering="optimizeSpeed"  x="86" y="946" width="43" height="43" fill="black" />
<rect shape-rendering="optimizeSpeed"  x="129" y="946" width="43" height="43" fill="black" />
<rect shape-rendering="optimizeSpeed"  x="172" y="946" width="43" height="43" fill="black" />
<rect shape-rendering="optimizeSpeed"  x="258" y="946" width="43" height="43" fill="black" />
<rect shape-rendering="optimizeSpeed"  x="387" y="946" width="43" height="43" fill="black" />
<rect shape-rendering="optimizeSpeed"  x="430" y="946" width="43" height="43" fill="black" />
<rect shape-rendering="optimizeSpeed"  x="559" y="946" width="43" height="43" fill="black" />
<rect shape-rendering="optimizeSpeed"  x="602" y="946" width="43" height="43" fill="black" />
<rect shape-rendering="optimizeSpeed"  x="645" y="946" width="43" height="43" fill="black" />
<rect shape-rendering="optimizeSpeed"  x="688" y="946" width="43" height="43" fill="black" />
<rect shape-rendering="optimizeSpeed"  x="731" y="946" width="43" height="43" fill="black" />
<rect shape-rendering="optimizeSpeed"  x="817" y="946" width="43" height="43" fill="black" />
<rect shape-rendering="optimizeSpeed"  x="946" y="946" width="43" height="43" fill="black" />
<rect shape-rendering="optimizeSpeed"  x="1032" y="946" width="43" height="43" fill="black" />
<rect shape-rendering="optimizeSpeed"  x="0" y="989" width="43" height="43" fill="black" />
<rect shape-rendering="optimizeSpeed"  x="258" y="989" width="43" height="43" fill="black" />
<rect shape-rendering="optimizeSpeed"  x="344" y="989" width="43" height="43" fill="black" />
<rect shape-rendering="optimizeSpeed"  x="387" y="989" width="43" height="43" fill="black" />
<rect shape-rendering="optimizeSpeed"  x="516" y="989" width="43" height="43" fill="black" />
<rect shape-rendering="optimizeSpeed"  x="602" y="989" width="43" height="43" fill="black" />
<rect shape-rendering="optimizeSpeed"  x="688" y="989" width="43" height="43" fill="black" />
<rect shape-rendering="optimizeSpeed"  x="774" y="989" width="43" height="43" fill="black" />
<rect shape-rendering="optimizeSpeed"  x="817" y="989" width="43" height="43" fill="black" />
<rect shape-rendering="optimizeSpeed"  x="860" y="989" width="43" height="43" fill="black" />
<rect shape-rendering="optimizeSpeed"  x="1032" y="989" width="43" height="43" fill="black" />
<rect shape-rendering="optimizeSpeed"  x="0" y="1032" width="43" height="43" fill="black" />
<rect shape-rendering="optimizeSpeed"  x="43" y="1032" width="43" height="43" fill="black" />
<rect shape-rendering="optimizeSpeed"  x="86" y="1032" width="43" height="43" fill="black" />
<rect shape-rendering="optimizeSpeed"  x="129" y="1032" width="43" height="43" fill="black" />
<rect shape-rendering="optimizeSpeed"  x="172" y="1032" width="43" height="43" fill="black" />
<rect shape-rendering="optimizeSpeed"  x="215" y="1032" width="43" height="43" fill="black" />
<rect shape-rendering="optimizeSpeed"  x="258" y="1032" width="43" height="43" fill="black" />
<rect shape-rendering="optimizeSpeed"  x="344" y="1032" width="43" height="43" fill="black" />
<rect shape-rendering="optimizeSpeed"  x="430" y="1032" width="43" height="43" fill="black" />
<rect shape-rendering="optimizeSpeed"  x="473" y="1032" width="43" height="43" fill="black" />
<rect shape-rendering="optimizeSpeed"  x="516" y="1032" width="43" height="43" fill="black" />
<rect shape-rendering="optimizeSpeed"  x="688" y="1032" width="43" height="43" fill="black" />
<rect shape-rendering="optimizeSpeed"  x="731" y="1032" width="43" height="43" fill="black" />
<rect shape-rendering="optimizeSpeed"  x="903" y="1032" width="43" height="43" fill="black" />
<rect shape-rendering="optimizeSpeed"  x="1032" y="1032" width="43" height="43" fill="black" /></svg>